<svg height="316.227766" viewBox="0 0 70.263153 70.273781" width="316.227766" xmlns="http://www.w3.org/2000/svg"><style xmlns="" id="autoconsent-prehide"/><path d="m0 0-34.247 5.424 5.426 34.255 34.247-5.423z" fill="#fff" transform="matrix(1.7710572 0 0 -1.7710572 60.6533925416 70.2737792828)"/><path d="m0 0c-.742.043-1.331.126-1.832.311-.914.339-2.397 1.285-2.38 3.115v.227c-.019 1.816 1.465 2.763 2.38 3.102.501.186 1.09.268 1.832.311 2.753.16 3.921-.753 4.412-1.547l.994 6.28-32.235 5.105-1.568-9.896h.696c-.018.279-.041 1.503.862 2.28 0 0 .99.975 3.861.745 0 0 2.933-.243 2.933-2.373h-2.041s-.074 1.184-1.899 1.13c0 0-1.865.037-1.704-1.782h5.644v-.933c.166.254.595.677 1.682.971 0 0 4.635 1.021 5.101-2.283v-4.649l-2.039-.001v3.857c-.304 2.078-2.616 1.698-2.616 1.698-1.581-.135-2.021-1.034-2.128-1.693v-3.862h-2.039v5.498h-3.574v-5.498l-2.039.001v5.497h-.921l-3.317-20.942 32.236-5.106 3.356 21.192c-.696-.492-1.826-.861-3.657-.755" fill="#e7ad0f" transform="matrix(1.7710572 0 0 -1.7710572 58.6273031048 32.0065463624)"/><path d="m0 0s-2.521.156-2.609-2.143l-.001-.07c.087-2.304 2.61-2.147 2.61-2.147 1.138-.007 1.756.359 2.073 1.012h1.317l.37 2.336h-1.687c-.317.652-.935 1.019-2.073 1.012" fill="#e7ad0f" transform="matrix(1.7710572 0 0 -1.7710572 59.5517949632 21.8884965788)"/><path d="m0 0 .052-4.146-2.024-.001-.068.777v.031c-.801-1.003-2.756-.942-2.756-.942-3.662-.068-3.608 1.946-3.608 1.946-.284 2.094 2.382 2.058 4.622 2.189 2.227.13 1.703 1 1.703 1-.095.73-1.703.801-1.703.801-2.23.176-2.248-1.195-2.248-1.195h-2.087s.007 1.759 2.208 2.265c.021.007 1.313.386 3.561.011 0 0 2.523-.341 2.348-2.736zm-2.06-.92c-.002.033-.017 0-.017 0-.223-.304-1.34-.308-1.34-.308-1.115-.075-2.776-.024-2.749-1.005.028-1.04 1.384-.923 2.018-.898.716.03 1.331.221 1.841.844.445.543.25 1.335.247 1.367" fill="#fff" transform="matrix(1.7710572 0 0 -1.7710572 50.6097271604 24.4618426904)"/></svg>