<?xml version="1.0" encoding="UTF-8" standalone="no"?>
<svg
   viewBox="0 0 186 41"
   version="1.1"
   xmlns="http://www.w3.org/2000/svg"
   xmlns:svg="http://www.w3.org/2000/svg">
    <g transform="translate(-0.19932886,-2.3567012)">
      <path
         style="fill:#006fcf;fill-opacity:1;stroke-width:0.352999;stroke-miterlimit:4;stroke-dasharray:none"
         d="m 0.11772484,17.380698 v 8.40259 l 2.20502996,0.37466 c 4.54361,0.77178 17.2382302,4.3451 25.6309902,7.21454 3.49426,1.19467 4.43655,1.37563 7.16442,1.37563 5.008857,0 12.473193,-2.0929 19.680457,-5.51801 8.287953,-3.93869 18.213042,-4.98812 29.563569,-3.12539 5.499584,0.90254 12.183361,2.82168 14.415659,4.13877 l 1.25057,0.73742 -1.360126,0.82372 c -2.670789,1.61695 -6.734011,2.70647 -10.179741,2.73007 -2.699776,0.0184 -3.688352,-0.15267 -6.604764,-1.14309 -1.886371,-0.64062 -3.791373,-1.10884 -4.233333,-1.04024 -0.6647,0.10311 -0.559539,0.20869 0.607716,0.60978 0.77611,0.26668 3.15736,1.32599 5.291666,2.35386 2.134304,1.02786 4.832882,2.12311 5.997049,2.43396 4.197651,1.12085 11.710793,0.51918 18.520833,-1.48311 3.17194,-0.93262 7.46364,-2.80768 8.6434,-3.77652 0.67223,-0.55205 0.63856,-0.56699 -0.7059,-0.31109 -2.16995,0.41303 -10.3402,0.2731 -12.60543,-0.21601 -3.466798,-0.74854 -3.17782,-1.48661 1.00562,-2.56677 2.35926,-0.60911 3.52867,-0.69256 7.71943,-0.55035 4.45109,0.15104 5.3337,0.29438 8.9364,1.44798 2.19864,0.704 4.68973,1.28002 5.53558,1.28002 0.84585,0 1.6432,0.1704 1.77199,0.37879 0.57022,0.92263 -2.913,3.33527 -6.61975,4.58525 -1.49386,0.50375 -2.99664,0.68006 -5.79138,0.68006 -2.07576,0 -3.69427,0.0802 -3.59668,0.17777 0.0976,0.0976 1.27493,0.57793 2.61638,1.06763 2.1335,0.77882 2.85871,0.87159 5.79034,0.74053 4.48982,-0.20074 10.28747,-1.74636 16.05173,-4.27985 6.43432,-2.82797 10.84359,-4.15399 24.16494,-7.26674 5.80694,-1.35692 6.41491,-1.43293 10.2309,-1.27486 3.73357,0.15465 5.10393,0.4331 8.55451,1.73582 1.14682,0.43297 1.25649,0.89195 0.25063,1.04955 -1.03443,0.16207 -0.93956,0.7176 0.23461,1.37355 1.5833,0.88453 3.40804,1.11785 4.20182,0.53744 0.66509,-0.48636 0.66587,-0.5193 0.0331,-1.21853 -0.80614,-0.89078 -4.28659,-2.55388 -7.10138,-3.39359 -1.16416,-0.3473 -2.81571,-0.789 -4.41265,-1.32085 -7.66462,-2.42689 -73.731154,0.14785 -86.778165,-3.11041 -13.047009,-3.25826 -43.933426,-4.77501 -60.93529,-1.20664 -7.85571,1.50381 -1.1759,7.03719 -25.14472016,-3.44734 z m 71.44938316,9.66505 c -1.943825,0.003 -3.651692,0.21437 -4.915979,0.6351 -2.528893,0.84156 -5.103223,2.35697 -6.913791,4.07004 -0.679097,0.64253 -2.345971,1.75332 -3.704166,2.46806 -2.337601,1.23015 -2.610879,1.29112 -5.11545,1.14877 -1.455208,-0.0827 -2.949352,-0.28281 -3.320728,-0.44494 -0.48396,-0.21127 -0.602085,-0.17644 -0.417029,0.123 0.399913,0.64707 3.052964,1.9202 4.619873,2.21691 2.091647,0.39606 7.893714,0.0684 9.619052,-0.54311 0.827937,-0.29348 2.494812,-1.23448 3.704167,-2.09135 5.357548,-3.79599 10.107837,-5.57114 14.89883,-5.56814 3.346267,0.002 2.999483,-0.34253 -1.238684,-1.23041 -2.506874,-0.52518 -5.013095,-0.78779 -7.216095,-0.78393 z m -64.1893632,3.49281 c -1.64908,0.004 -3.25949,0.18087 -4.80901,0.5333 l -2.45100996,0.55759 v 2.61741 c 0,1.85958 0.12804,2.61734 0.44131,2.61638 0.24254,-8e-4 2.42499996,-0.39407 4.85034996,-0.87385 7.2467702,-1.43358 14.7380202,-1.1588 19.3476602,0.70952 2.44451,0.99078 2.44341,0.9904 1.80661,0.35811 -0.66179,-0.65711 -6.54276,-3.55041 -9.47178,-4.66018 -3.2766,-1.24147 -6.56589,-1.86572 -9.7141302,-1.85828 z m 64.9717442,5.30717 c -1.42965,-0.006 -2.828774,0.41683 -4.380611,1.24178 -1.325803,0.70479 -2.956658,1.47196 -3.624069,1.70429 -1.137479,0.39594 -0.950037,0.44745 2.998266,0.82992 2.316647,0.22442 5.482492,0.79671 7.034712,1.27124 2.872645,0.87818 6.871081,1.1273 9.172051,0.57154 0.939284,-0.22687 0.979141,-0.2853 0.352949,-0.52038 -0.388054,-0.14568 -1.167847,-0.43878 -1.732711,-0.65112 -0.564867,-0.21234 -1.820275,-0.93164 -2.789492,-1.59835 -2.787737,-1.91762 -4.941609,-2.84065 -7.031095,-2.84892 z" />
      <path
         style="fill:#0eb600;fill-opacity:1;stroke-width:0.352778"
         d="m 164.44655,25.099178 c -7.14759,-0.16997 -9.06285,0.47601 -19.14801,2.9881 -4.3337,1.07947 -4.92588,1.1407 -10.75971,1.11246 -5.62799,-0.0272 -6.4854,-0.11695 -9.70139,-1.01502 -1.94028,-0.54182 -4.32153,-1.20467 -5.29167,-1.47299 -2.67016,-0.73851 -5.0812,-0.88676 -7.23194,-0.44468 -2.26625,0.46581 -8.58077,2.93606 -9.9199,3.88068 -1.38607,0.97772 -2.591765,1.35766 -3.162326,0.99651 -0.274846,-0.17397 -0.349384,-0.31874 -0.16564,-0.32171 0.603024,-0.01 -2.665028,-2.22275 -6.01937,-4.07608 -4.65594,-2.57249 -11.397287,-5.11376 -14.944757,-5.63369 -0.869026,-0.12736 -1.692046,-0.30079 -1.828931,-0.38539 -0.376459,-0.23267 -6.60182,-0.21749 -8.409079,0.0205 -3.089501,0.40684 -5.674498,1.52158 -8.630818,3.72193 -2.350763,1.74963 -3.792291,1.98083 -6.552618,1.05094 -2.277759,-0.76732 -3.362756,-1.35311 -5.063384,-2.73373 -2.984766,-2.42312 -7.036176,-3.4895 -11.078992,-2.91612 -2.46428,0.34949 -7.16644,1.75804 -8.89086,2.66328 -0.77274,0.40565 -0.53251,0.43931 1.94028,0.27181 4.80525,-0.32548 9.51355,1.07062 14.742214,4.37133 0.908647,0.5736 2.170022,0.95229 3.722968,1.1177 2.123045,0.22614 3.357964,0.13842 6.559366,-0.46594 l 1.035661,-0.19551 -0.839767,0.89389 c -0.46187,0.49164 -1.711431,1.32035 -2.776802,1.84159 -1.784759,0.8732 -2.271614,0.94635 -6.193114,0.93044 -3.491935,-0.0141 -4.889465,-0.18927 -7.783858,-0.9753 -12.250558,-3.3269 -13.853138,-3.57969 -24.694448,-3.89521 -3.29847,-0.096 -7.6272802,-0.28055 -9.6195802,-0.41011 l -3.62234996,-0.23557 0.0946,-8.1389 0.0946,-8.1389003 0.88193996,-0.22112 c 1.16607,-0.29236 1.76356,-0.049 2.09771,0.8542503 0.15113,0.40854 0.57441,0.74364 0.94062,0.74468 0.44602,10e-4 0.77727,0.38038 1.00337,1.14841 0.22413,0.76129 0.55789,1.14653 0.99334,1.14653 0.909,0 1.98337,0.62302 2.88805,1.67477 1.1304202,1.3142 2.0235802,0.65377 3.2118502,-2.37492 0.53403,-1.36117 1.08905,-2.47485 1.23338,-2.47485 0.14432,0 1.86549,1.52427 3.82482,3.38727 2.59834,2.47059 3.56242,3.20194 3.56242,2.70246 0,-0.80293 1.54334,-1.62117 2.49068,-1.32049 0.72911,0.23141 0.9147,-0.45672 1.18264,-4.38505 0.10173,-1.4916103 0.3862,-2.5726203 0.83549,-3.1750003 1.10779,-1.48526 1.6474,-1.31659 2.70526,0.8456 0.81848,1.67291 0.92674,2.2308603 0.72186,3.7205203 -0.19387,1.40956 -0.37362,1.75247 -0.91867,1.75247 -0.57757,0 -2.07283,1.80877 -2.07706,2.51255 -7.4e-4,0.12072 0.61307,0.31774 1.36398,0.43781 0.75091,0.12008 1.57776,0.47433 1.83745,0.78723 0.77359,0.93212 3.07821,0.43369 4.11395,-0.88974 0.88549,-1.13144 1.77003,-1.34335 2.95661,-0.70831 1.133676,0.60673 1.476385,0.2096 0.686121,-0.79506 l -0.732871,-0.93165 1.190166,-0.73556 c 1.421733,-0.87868 1.711089,-0.89731 3.064686,-0.19734 1.090257,0.56379 1.420682,0.2162 0.511648,-0.53823 -0.847517,-0.70337 -0.634788,-1.03813 1.144334,-1.80075 1.554896,-0.66651 1.754914,-0.6785203 2.822222,-0.16956 1.25903,0.60039 1.453745,0.42263 0.586624,-0.5355203 -0.524747,-0.57984 -0.472003,-0.64598 0.793751,-0.99529 4.393357,-1.21246 5.412793,-1.37977 5.412793,-0.88834 0,0.87936 -1.392658,4.2222303 -2.46047,5.9059903 -0.578471,0.91216 -0.954941,1.65847 -0.836595,1.65847 1.111335,0 4.538193,-3.40558 5.457811,-5.42392 0.485359,-1.0652403 1.182663,-1.2057703 1.531885,-0.3087203 0.216789,0.5568703 0.307107,0.5355103 0.921681,-0.21793 0.567366,-0.69556 0.771574,-0.7604 1.22077,-0.3876 0.446652,0.37069 0.658428,0.31995 1.231336,-0.29499 0.869939,-0.93377 2.636132,-1.27382 5.341853,-1.02847 3.099593,0.28106 3.567821,0.83688 3.405914,4.0431203 -0.07111,1.4081 -0.01614,2.56018 0.122149,2.56018 0.138289,0 0.498563,-0.35282 0.800608,-0.78405 0.846014,-1.20786 0.741758,-4.9812503 -0.171767,-6.2168603 -0.981284,-1.32726 -0.608595,-2.24445 0.854163,-2.10211 0.997599,0.0971 1.089872,0.20701 0.978274,1.16552 -0.238365,2.04729 -0.08316,5.1056203 0.294961,5.8121403 0.454103,0.8485 1.701666,0.94622 2.004511,0.15701 0.11761,-0.30648 -0.125497,-1.23668 -0.540236,-2.06711 -1.447896,-2.8991303 -0.696511,-4.2890203 2.515097,-4.6523703 2.390715,-0.27047 3.129534,0.18713 4.161709,2.5776 0.811844,1.8801903 1.82964,2.4841203 2.949688,1.7502303 0.444539,-0.2912703 2.140455,-2.0350903 3.768704,-3.8751603 1.628249,-1.84006 3.061063,-3.35928 3.184031,-3.37604 0.122964,-0.0168 0.175412,0.68391 0.116547,1.55703 -0.08111,1.20306 0.01725,1.5875 0.406199,1.5875 0.419615,0 0.437388,0.1417 0.09745,0.77689 -0.29344,0.54829 -0.302923,0.81451 -0.03224,0.90474 0.210954,0.0703 0.296108,0.35571 0.189234,0.63422 -0.121144,0.31573 0.02808,0.50637 0.396381,0.50637 0.40822,0 0.52844,0.19612 0.389181,0.63488 -0.333266,1.0500303 2.078164,0.5972903 2.570169,-0.48254 0.210108,-0.46113 0.744601,-0.90905 1.187761,-0.99538 0.443163,-0.0863 2.234498,-0.43098 3.980748,-0.76591 1.74625,-0.33493 3.467594,-0.75843 3.825214,-0.94111 0.9496,-0.48508 2.31586,-0.024 2.74958,0.92791 0.3351,0.73549 0.48802,0.78599 1.37083,0.45277 1.06819,-0.4032 2.10854,0.096 2.10854,1.01165 0,0.25379 0.35617,0.51217 0.79148,0.57417 0.56591,0.0806 0.84318,0.41314 0.97286,1.1667603 0.12042,0.69981 0.41757,1.09176 0.88422,1.16631 1.40739,0.22486 2.62062,0.86779 3.14355,1.66588 0.86991,1.32765 1.89167,0.75026 3.06636,-1.73278 0.56031,-1.18439 1.01888,-2.3518803 1.01903,-2.5944103 7.1e-4,-0.93738 0.85312,-0.30884 4.66601,3.4401303 3.01952,2.96889 4.10422,3.8313 4.61498,3.66919 1.08074,-0.34302 2.04053,-3.03887 2.2082,-6.2024103 0.1538,-2.90163 1.06893,-5.22844 2.05636,-5.22844 0.23922,0 0.79532,0.67469 1.23577,1.49931 0.85559,1.60183 1.33879,4.1451403 0.78753,4.1451403 -0.18319,0 -0.25004,0.3175 -0.14856,0.70555 0.13912,0.53201 0.0108,0.70556 -0.52162,0.70556 -1.63442,0 -2.8504,3.98553 -1.62854,5.33775 0.55431,0.61346 0.93951,0.70338 2.31644,0.54073 0.90836,-0.10729 2.25774,-0.50197 2.99861,-0.87706 1.89776,-0.96081 3.43032,-1.22837 5.53184,-0.96581 2.64487,0.33046 2.95015,0.61542 1.84415,1.72142 -0.50252,0.50252 -0.91367,1.14348 -0.91367,1.42435 0,0.44342 0.21645,0.44553 1.64357,0.016 1.71524,-0.51621 5.30664,-0.60636 6.8231,-0.17127 0.83852,0.24059 0.81247,0.27586 -0.52917,0.71637 -0.77611,0.25483 -1.60955,0.62082 -1.85208,0.81332 -0.65949,0.52343 -0.53399,1.08345 0.17639,0.78711 1.41758,-0.59136 3.9227,-0.87497 5.82982,-0.66 1.75086,0.19736 2.00911,0.31898 1.83594,0.8646 -0.16904,0.5326 0.0712,0.67226 1.49032,0.86649 5.15672,0.70579 11.49375,2.0103 13.55462,2.45842 1.3494,0.29342 2.61121,0.47003 4.10272,1.3761 -3.70367,-0.5785 -8.27227,-0.88844 -11.2814,-0.91651 z"
      />
  </g>
</svg>
