<?xml version="1.0" encoding="UTF-8" standalone="no"?>
<!-- Created with Inkscape (http://www.inkscape.org/) -->

<svg
   width="148mm"
   height="28mm"
   viewBox="0 0 133.2 25.19999"
   version="1.1"
   id="svg10413"
   inkscape:version="1.1.2 (0a00cf5339, 2022-02-04)"
   sodipodi:docname="reunionweb-title.svg"
   xmlns:inkscape="http://www.inkscape.org/namespaces/inkscape"
   xmlns:sodipodi="http://sodipodi.sourceforge.net/DTD/sodipodi-0.dtd"
   xmlns="http://www.w3.org/2000/svg"
   xmlns:svg="http://www.w3.org/2000/svg">
  <sodipodi:namedview
     id="namedview10415"
     pagecolor="#ffffff"
     bordercolor="#666666"
     borderopacity="1.0"
     inkscape:pageshadow="2"
     inkscape:pageopacity="0.0"
     inkscape:pagecheckerboard="0"
     inkscape:document-units="mm"
     showgrid="false"
     scale-x="0.9"
     inkscape:zoom="0.66368547"
     inkscape:cx="241.07805"
     inkscape:cy="560.50647"
     inkscape:window-width="1680"
     inkscape:window-height="988"
     inkscape:window-x="0"
     inkscape:window-y="25"
     inkscape:window-maximized="1"
     inkscape:current-layer="layer1" />
  <defs
     id="defs10410" />
  <g
     inkscape:label="Layer 1"
     inkscape:groupmode="layer"
     id="layer1">
    <path
       id="path10075"
       style="fill:#006fcf;fill-opacity:1;stroke-width:0.75525;stroke-miterlimit:4;stroke-dasharray:none"
       d="m 122.96958,1.418755 c -1.02218,0 -1.85858,0.3389222 -1.85858,0.7540542 0,0.4151321 0.4993,0.7551454 1.10896,0.7551454 0.60972,0 0.9397,0.4410631 0.73302,0.9795816 -0.67602,1.76177 -2.42436,16.7050478 -2.06419,17.6436358 0.1932,0.503452 0.91644,1.039339 1.60757,1.191887 3.76037,0.82958 7.88227,-2.991184 8.87159,-8.224783 0.89182,-4.7177816 -2.61296,-7.2021768 -5.9693,-4.231254 -1.4737,1.30449 -1.48675,1.258084 -1.03155,-3.7735228 0.45553,-5.0352654 0.43933,-5.0947442 -1.39752,-5.0947442 z M 59.672252,1.8687613 c -0.373711,0.00856 -0.787452,0.274116 -1.111162,0.8789597 -0.438967,0.8202511 -0.583898,1.7058652 -0.321742,1.9680422 0.821086,0.821085 1.764894,0.522964 2.236702,-0.706514 C 60.954448,2.7625693 60.38576,1.8508535 59.672252,1.8687613 Z M 6.1066738,5.2099722 c -1.8906129,0.0086 -3.4948926,0.229935 -3.4948926,0.674421 0,0.380557 0.3210144,0.804675 0.7142377,0.943124 0.856644,0.301438 -0.743485,14.9702138 -1.6330139,14.9702138 -0.3249083,0 -0.5915145,0.338923 -0.5915145,0.754055 0,0.415132 0.9992224,0.755145 2.2200996,0.755145 1.2208768,0 2.4301367,-0.340013 2.6866867,-0.755145 0.256572,-0.415132 0.08537,-0.754055 -0.37923,-0.754055 -0.5145779,0 -0.7530059,-1.105 -0.6102999,-2.824879 0.294035,-3.544636 2.4525169,-4.361015 3.1046009,-1.174171 0.554523,2.710072 1.9723002,4.470259 4.1118472,5.105805 1.253398,0.372299 1.698248,0.194269 1.698248,-0.678871 0,-0.650672 -0.353942,-1.183029 -0.786105,-1.183029 -0.432141,0 -1.396425,-1.438039 -2.142713,-3.195274 -1.3561802,-3.193284 -1.3563512,-3.194995 0.407965,-4.58282 2.279707,-1.793221 2.462551,-6.1365208 0.306273,-7.2905388 -0.958892,-0.513165 -3.4694752,-0.774422 -5.6121892,-0.763981 z m 0.333894,1.607575 c 0.227111,-0.0011 0.517145,0.0644 0.88784,0.163674 0.934052,0.250324 1.930108,0.459056 2.213467,0.465475 1.0197622,0.0214 1.4382742,3.0041278 0.6324222,4.5098618 -0.4864422,0.908913 -1.5839762,1.537933 -2.6833712,1.537933 -1.708711,0 -1.860767,-0.283444 -1.860767,-3.483831 0,-2.4846308 0.06846,-3.1896248 0.810409,-3.1930698 z M 44.224389,8.9658014 c -1.310972,0 -1.504471,0.346047 -1.165335,2.0763666 0.22373,1.141608 0.08066,4.113151 -0.317313,6.603922 -0.398059,2.490749 -0.559122,4.799725 -0.358221,5.131244 0.695453,1.147556 2.495393,-1.173978 2.495393,-3.218487 0,-2.463043 3.155371,-8.705749 4.400425,-8.705749 1.180183,0 1.180312,-0.0021 0.542862,5.949399 -0.595516,5.560903 -0.08066,6.670226 2.7519,5.929501 1.137521,-0.29748 1.251151,-0.536294 0.482056,-1.011653 -0.700288,-0.432848 -1.007224,-2.414048 -1.007224,-6.500006 0,-5.4255786 -0.123451,-5.8941556 -1.610913,-6.1063966 -1.015718,-0.144846 -2.171682,0.482741 -3.127814,1.6982476 -1.917764,2.438075 -2.591928,2.451832 -1.986827,0.04087 0.391661,-1.5604836 0.201543,-1.8872956 -1.098989,-1.8872956 z m 14.166437,0 c -1.167774,0 -1.428026,0.346026 -1.081316,1.4384246 0.250967,0.790725 0.113181,3.568984 -0.306251,6.173834 -0.513593,3.189112 -0.513379,5.035608 0,5.654188 0.419347,0.505933 1.45738,0.736424 2.307456,0.514127 1.087542,-0.284407 1.268888,-0.574762 0.6103,-0.981806 C 59.235361,21.340814 59.11037,19.551316 59.45554,15.075515 59.902572,9.2785144 59.848934,8.9658014 58.390826,8.9658014 Z m 11.856778,0 c -5.996148,0 -10.068049,11.5604956 -4.763054,13.5229536 2.302878,0.851873 4.059128,0.192557 6.168315,-2.314089 2.244319,-2.667196 3.153189,-6.889527 2.018877,-9.379057 -0.64635,-1.4185906 -1.414889,-1.8298076 -3.424138,-1.8298076 z m 8.696891,0 c -1.310973,0 -1.504471,0.346047 -1.165335,2.0763666 0.22373,1.141608 0.08066,4.113151 -0.317313,6.603922 -0.398038,2.490749 -0.559144,4.799725 -0.358221,5.131244 0.695453,1.147556 2.495392,-1.173978 2.495392,-3.218487 0,-2.463043 3.155415,-8.705749 4.400404,-8.705749 1.180226,0 1.180333,-0.0021 0.542883,5.949399 -0.595515,5.560903 -0.08066,6.670226 2.7519,5.929501 1.137521,-0.29748 1.25113,-0.536294 0.482057,-1.011653 -0.70031,-0.432848 -1.007225,-2.414048 -1.007225,-6.500006 0,-5.4255786 -0.12345,-5.8941556 -1.610912,-6.1063966 -1.015718,-0.144846 -2.171704,0.482741 -3.127815,1.6982476 -1.917763,2.438075 -2.591949,2.451832 -1.986827,0.04087 0.391662,-1.5604836 0.201543,-1.8872956 -1.098988,-1.8872956 z m 12.683789,0 c -0.804825,0 -1.462751,0.340014 -1.462751,0.755146 0,0.4151316 0.290762,0.7551446 0.645688,0.7551446 0.354904,0 0.839143,2.29263 1.076887,5.094744 0.237765,2.802093 0.663295,5.688377 0.945306,6.414853 0.793593,2.044401 1.729229,1.581344 3.048226,-1.509179 0.6644,-1.556718 1.57071,-3.679897 2.01335,-4.717716 0.75324,-1.766029 0.85731,-1.624306 1.63633,2.203518 0.4578,2.249454 1.23945,4.225754 1.73695,4.391568 0.51578,0.172017 2.2212,-2.315737 3.96701,-5.787993 1.68399,-3.34932 3.39728,-6.089795 3.80777,-6.089795 0.41049,0 0.74631,-0.340013 0.74631,-0.7551446 0,-0.415132 -1.18842,-0.755146 -2.64135,-0.755146 -2.61018,0 -3.6922,1.1703846 -1.51913,1.6429626 0.92674,0.201543 0.79693,0.942867 -0.7441,4.257783 -1.99885,4.299761 -3.35103,4.556333 -3.47277,0.658953 -0.10591,-3.389179 -0.93857,-6.0164296 -2.0211,-6.3772826 -0.51741,-0.172445 -0.92321,0.340677 -0.92321,1.1686516 0,0.812078 -0.72802,3.123343 -1.61864,5.136764 -1.815247,4.103652 -2.254277,3.709423 -3.228429,-2.902287 C 93.198888,9.6887474 92.796657,8.9658014 91.628284,8.9658014 Z m -61.781525,0.0021 c -0.979966,0.0017 -1.233521,1.1517706 -1.407465,6.3651076 -0.180576,5.413619 -0.01498,6.47354 1.108959,7.10256 v 0.0011 c 0.91807,0.513786 1.937532,0.419647 3.343414,-0.307364 1.712562,-0.88664 2.154566,-0.888887 2.881277,-0.01284 0.472151,0.569007 1.554686,0.852494 2.404741,0.630197 1.070811,-0.280021 1.261913,-0.578827 0.622473,-0.97404 -0.681032,-0.420887 -0.780178,-2.212119 -0.377005,-6.8339 0.475124,-5.4465886 0.402594,-6.1447366 -0.556149,-5.3490476 -0.606427,0.5032806 -1.324194,2.3028136 -1.595422,3.9990716 -0.713061,4.459155 -2.457416,7.454148 -4.34069,7.454148 -1.509884,0 -1.569727,-0.293586 -1.237202,-6.037847 0.298421,-5.1550776 0.174158,-6.0385516 -0.846931,-6.0367336 z m -7.451944,0.09949 c -1.069805,0.01926 -2.229107,0.459014 -3.208539,1.4384236 -3.70754,3.70754 -4.145223,11.076257 -0.724186,12.187377 0.622687,0.202185 1.704067,0.219023 2.403649,0.03765 1.544117,-0.400348 4.203996,-3.197477 3.040479,-3.197477 -0.454948,0 -1.037006,0.338922 -1.293578,0.754033 -0.692586,1.12064 -3.173707,0.914411 -3.640851,-0.302936 -0.497718,-1.297065 0.09371,-1.961388 1.747992,-1.961388 1.388102,0 4.042205,-2.63966 4.79735,-4.77189 0.882704,-2.492439 -0.93172,-4.2220096 -3.122316,-4.1837116 z m 92.837565,0 c -1.06983,0.01926 -2.22913,0.459014 -3.20854,1.4384236 -3.70754,3.70754 -4.1452,11.076257 -0.72419,12.187377 0.62271,0.202185 1.70403,0.219023 2.40365,0.03765 1.5441,-0.400348 4.204,-3.197477 3.04048,-3.197477 -0.45495,0 -1.03703,0.338922 -1.2936,0.754033 -0.69258,1.12064 -3.17369,0.914411 -3.64083,-0.302936 -0.49772,-1.297065 0.0937,-1.961388 1.74799,-1.961388 1.38808,0 4.04219,-2.63966 4.79733,-4.77189 0.88271,-2.492439 -0.9317,-4.2220096 -3.12229,-4.1837116 z M 21.804413,10.475969 c 1.636929,0 2.077286,2.320978 0.808227,4.257783 -1.442147,2.201015 -3.396496,2.328124 -3.396496,0.22112 0,-2.142756 1.350425,-4.478903 2.588269,-4.478903 z m 92.837567,0 c 1.63692,0 2.07726,2.320978 0.8082,4.257783 -1.44217,2.201015 -3.3965,2.328124 -3.3965,0.22112 0,-2.142756 1.35043,-4.478903 2.5883,-4.478903 z m 12.9027,0 c 1.55218,0 1.50644,6.651719 -0.0608,8.889256 -0.64622,0.922648 -1.87906,1.677259 -2.73977,1.677259 -1.40751,0 -1.52623,-0.34042 -1.18301,-3.385435 0.42855,-3.802043 2.30318,-7.18108 3.98358,-7.18108 z m -58.81952,0.01498 c 0.979282,2.57e-4 2.073393,0.563744 2.613708,1.573321 0.917172,1.713739 0.352787,6.449064 -0.95748,8.034623 -1.274515,1.54232 -3.595622,1.08996 -4.330762,-0.843615 -0.648533,-1.705822 -0.06697,-6.146363 1.039295,-7.936204 0.349,-0.564706 0.965183,-0.828274 1.635239,-0.828125 z" />
  </g>
</svg>
