<svg viewBox="0 0 566 150" xmlns="http://www.w3.org/2000/svg"><path style="fill:#0eb600;fill-opacity:1;stroke:none;stroke-width:1.05257;stroke-linecap:round;stroke-linejoin:round;stroke-dasharray:none;stroke-opacity:1" d="M7.626 82.514c-6.574-.692-3.63-1.02-3.63-23.885 0-18.654.279-23.097 1.519-24.126.836-.694 2.635-1.232 3.944-.918 2.151.516 3.21 1.635 2.79 3.158 1.897 2.564 4.004 1.727 6.34 3.252 2.045 6.962 4.411 3.999 10.343 7.96 1.97 4.564 3.847 5.212 6.054 4.207 5.023-2.496 5.14-12.109 9.646-14.226 1.286-.493 4.7 2.337 12.72 10.544 6.03 6.17 11.42 11.218 11.977 11.218.557 0 .048-1.035-1.132-2.302-1.742-2.076-1.992-4.886.017-6.143 1.188-.636 3.415-1.008 4.948-.826 2.36.28 2.174-.402 3.423-2.824 1.781-3.453-1.082-5.539 1.142-6.987-2.075-1.524-1.587-3.81.497-4.136-1.233-1.43-2.392-5.041.41-5.412-.894-3.11.378-3.873 2.085-3.353-.463-2.309 1.285-2.955 2.17-3.012 1.218 0 2.88.713 2.293 3.097 2.42-.337 2.748 1.364 2.042 3.05 2.335.507 2.034 2.155 1.36 3.529 1.96 1.03 2.127 2.521.46 3.798 1.778 1.922 1.068 3.52-.455 3.922.317 2.65-.41 4.001-3.439 4.037-2.323 1.215-4.283 4.8-4.372 7.677 0 1.096.15 2.087 2.672 1.678 6.28-.89 8.658 4.24 12.911 3.857 2.652.304 2.955-1.099 5.119-.442 1.32.42 2.63-.342 1.57-1.101-1.113-.797-1.341-1.381.64-3.685 2.464-2.864 2.969-3.038 6.969-1.366 2.219.927 2.987 1.358 4.432 1.685.937-2.958-1.62-4.063-2.751-6.177.004-.363-.364-.687 3.411-3.308 3.776-2.622 6.344-.407 11.79 1.141-3.29-5.374-5.945-4.942-.795-7.61 5.15-2.667 8.748-2.246 14.845-.331-1.83-2.026-1.57-2.904-3.903-3.867 3.37-2.712 7.814-2.418 11.44-.475-.529-.98-1.911-2.18-1.039-2.792 1.6-1.122 7.544-2.694 9.682-3.079-.695 5.417-3.359 11.654-8.077 19.253-1.956 3.101-3.36 5.836-3.118 6.077.24.24 2.662-.938 5.38-2.618 3.175-1.964 6.472-5.38 9.218-9.554 4.707-8.32 5.938-9.57 8.104-4.54 3.06-2.63 5.044-5.346 7.088-1.316 4.438-4.654 9.888-6.665 15.385-5.977 5.94 0 9.205 1.252 11.18 3.226 1.997 1.997 2.177 3.038 1.638 9.466-.5 5.973-.743 6.568.965 7.222.806.31 2.356-1.487 3.513-3.345.997-1.6 1.528-1.118.45-10.056-1.078-8.938-3.726-8.894-3.945-11.01-.218-2.118 1.552-3.347 3.277-3.548 1.725-.2 3.39-.038 3.815 2.863.424 2.9-2.066 1.763-.957 11.786 1.11 10.024 1.177 7.222 1.734 8.262.557 1.041 1.953 1.893 3.102 1.893 1.19 0 2.588-1.097 3.249-2.547 1.43-6.386-8.073-11.228-3.288-16.419 1.755-1.919 4.8-2.818 8.128-3.225 4.852-.593 7.07-1.147 9.832 1.463 2.762 2.61 2.86 7.243 5.922 10.39 9.923 3.541 17.594-11.07 23.443-17.35 4.28-5.35 4.55-4.31 3.104 3.71 1.913 2.284 3.024 1.815 1.343 5.013-1.52 2.293 2.648 1.033.798 4.24-.179 2.104 3.626.167 2.104 3.793 1.951 2.543 7.443.206 8.393-2.16 1.295-6.397 2.021-2.74 4.97-3.21 7.937-.023 18.182-2.863 24.281-5.787 7.804.08 4.267 7.684 9.911 5.374 2.93-2.466 6.644-.896 6.51 2.577-.06 5.5 5.02-1.811 5.254 5.648.63 7.028 6.389.261 8.6 3.85 10.15 15.186 10.338-1.752 16.751-10.483 6.02 3.78 21.983 23.677 23.956 23.783 7.35.252 8.274-9.648 9.036-15.307-1.305-1.471-.806-2.485.314-2.939-1.858-2.051-1.285-4 .298-4.704-1.218-1.828-.629-4.529.717-5.533-.382-1.43-.228-3.838 1.603-4.177.2-1.923 1.336-2.268 2.356-2.296 1.474-.04 2.724.806 2.535 2.093 2.123.478 2.918 1.887 2.459 3.535 1.622 1.244 2.618 2.46 1.538 4.18 1.695.68 1.628 2.553.387 3.642 1.246 1.263 1.006 3.788-.926 4.109.78 1.674.084 2.821-2.041 3.418-6.47 2.228-8.449 13.978-3.313 16.7 5.135 2.724 11.664-1.174 20.658-4.002 8.993-2.829 16.732-.114 20.176 2.345-4.986 2.285-6.48 3.452-7.47 7.54 9.227-3.586 20.529-2.792 28.245-1.682-.24 3.412-7.088 2.12-11.645 7.399 4.773-1.639 20.445-5.31 27.738-1.248-1.482.686-3.055.897-3.033 3.671 14.216 1.023 36.81 3.006 46.166 11.128-81.986 3.525-73.869 10.356-109.806 10.749-25.672-.18-40.132-11.463-61.05-10.986-20.918.477-39.407 10.265-58.757 9.277-19.35-.988-17.585-21.386-58.135-23.526-40.55-2.139-72.117 36.471-101.463 30.91-29.346-5.56-54.989-18.828-118.745-16.467Z"/><path style="fill:#0077ce;fill-opacity:1;stroke:none;stroke-width:1.07484;stroke-opacity:1" d="M5.246 121.391c20.96-5.825 52.8-12.713 85.801 4.181C34.285 89.722 7.981 102.06 5.497 104.9c-2.484 2.84-.25 16.492-.25 16.492Z"/><path style="fill:#0077ce;fill-opacity:1;stroke:none;stroke-width:.872755;stroke-opacity:1" d="M186.724 126.464c13.483 6.932 20.535-3.292 29.224 1.127 12.973 6.599 20.063 9.505 39.262 2.708-27.105-4.472-20.587-12.8-37.084-14.78-11.072-1.33-13.282 9.622-31.402 10.945z"/><path style="fill:#0077ce;fill-opacity:1;stroke:none;stroke-width:1.07484;stroke-opacity:1" d="M134.5 118.837c42.926 26.853 60.869-32.118 107.384-21.657-73.008-25.683-54.767 24.127-107.385 21.657z"/><path style="fill:#0077ce;fill-opacity:1;stroke:none;stroke-width:1.15632;stroke-opacity:1" d="M353.653 103.456c-24.05-.804-33.296 16.2-56.49 18.936-23.194 2.736-27.849-15.489-52.585-4.46 15.768-19.078 37.502-5.839 55.336-7.993 17.835-2.155 41.251-16.51 53.74-6.483z"/><path style="fill:#0077ce;fill-opacity:1;stroke:none;stroke-width:1.05182;stroke-opacity:1" d="M227.984 78.955c-40.777-.032-75.257 28.845-116.187 31.316-16.62.465-25.758-3.518-41.08-9.32-15.32-5.8-22.237-11.85-64.892-18.855 45.646-2.263 50.854-1.763 70.379 1.99 57.97 11.147 48.393 23.249 91.166 2.853-17.028 1.757-12.042 3.183-24.562 1.474-18.107-2.472-21.944-20.333-63.444-10.895 21.6-15.13 52.947-15.41 63.285-10.504 10.34 4.907 15.006 15.17 32.003 13.604 16.996-1.566 22.207-16.88 53.369-15.147 44.693 2.486 35.065 25.6 59.94 25.135 24.873-.465 17.857-10.433 51.303-11.146 33.445-.713 42.086 12.618 69.243 12.018 27.158-.6 93.773-14.867 118.08-9.009 24.305 5.858 27.942 10.003 29.934 12.9 1.991 2.896-.964 4.68-3.428 4.604-2.464-.075-5.252-.866-7.401-1.764-4.143-2.923-1.762-5.48 2.712-4.58-10.436-6.187-19.168-8.87-32.99-8.594-13.82.277-50.865 7.949-67.926 12.674-38.455 10.722-53.216 23.342-65.8 26.387-12.582 3.045-29.655.982-37.705-8.211 29.476 5.807 42.42-5.068 52.815-13.604-28.237-18.385-65.07-6.085-89.726-5.593-24.656.492-47.14-17.708-79.088-17.733z"/></svg>
